<?xml version="1.0" encoding="UTF-8"?>
<svg width="1593px" height="504px" viewBox="0 0 1593 504" version="1.1" xmlns="http://www.w3.org/2000/svg" xmlns:xlink="http://www.w3.org/1999/xlink">
    <!-- Generator: sketchtool 53.2 (72643) - https://sketchapp.com -->
    <title>DC186672-5778-4B51-9237-24408D5DE1BC</title>
    <desc>Created with sketchtool.</desc>
    <g id="💻-Desktop" stroke="none" stroke-width="1" fill="none" fill-rule="evenodd" opacity="0.15">
        <g id="Home" transform="translate(-161.000000, -2405.000000)">
            <g id="bg_middle" transform="translate(161.000000, 2405.000000)">
                <g id="bg" transform="translate(875.500654, 403.962050) rotate(27.000000) translate(-875.500654, -403.962050) translate(-245.499346, -86.537950)">
                    <path d="M802.497416,527.599804 C793.292883,516.352443 780.810221,501.233292 766.209827,483.905272 L766.2902,483.905272 C692.610229,397.38175 615.558471,311.817491 560.21441,266.405968 L502.378474,266.405968 C530.081219,286.797012 623.563157,380.903376 672.108283,440.212051 C681.314291,451.458019 693.796953,466.57717 708.395871,483.905272 L708.316893,483.905272 C781.996945,570.428713 858.198478,655.991497 913.542293,701.405968 L971.378474,701.405968 C943.675402,681.014925 851.042869,586.90856 802.497416,527.599804" id="Fill-1" fill="#67C0B5"></path>
                    <path d="M899.173389,527.392929 C889.967427,516.145569 877.484225,501.026418 862.885087,483.698398 L862.96546,483.698398 C789.28537,397.174875 712.233397,311.610616 656.889123,266.199094 L599.052965,266.199094 C626.755816,286.590138 720.238032,380.696502 768.783427,440.005177 C777.989389,451.251145 790.472181,466.370295 805.071155,483.698398 L804.9907,483.698398 C878.670954,570.221838 954.874174,655.784623 1010.2182,701.199094 L1068.05297,701.199094 C1040.35143,680.808051 947.718538,586.701686 899.173389,527.392929" id="Fill-3" fill="#67C0B5"></path>
                    <path d="M993.034829,527.481706 C983.828861,516.234345 971.34565,501.115195 956.747322,483.787175 L956.827695,483.787175 C883.147144,397.263652 806.093558,311.699393 750.75064,266.287871 L692.914524,266.287871 C720.617312,286.678915 814.099675,380.785279 862.644694,440.093954 C871.851482,451.339922 884.333873,466.459072 898.933021,483.787175 L898.852648,483.787175 C972.532379,570.310615 1048.73565,655.8734 1104.07972,701.287871 L1161.91452,701.287871 C1134.21215,680.896827 1041.58001,586.790463 993.034829,527.481706" id="Fill-4" fill="#67C0B5"></path>
                    <path d="M1554.08343,224.450948 C1540.12793,220.319507 1454.01104,191.815943 1432.55342,184.430047 L1432.62071,184.388979 C1324.80658,147.916014 1220.52687,110.442533 1149.63498,99.9106524 L1100.01771,129.778004 C1134.29673,133.035422 1257.07326,169.382633 1329.29784,195.394412 C1342.99238,200.328109 1361.49494,206.902943 1382.95421,214.288839 L1382.88528,214.329906 C1675.52234,313.477315 1957.50856,370.377455 2028.39881,380.910652 L2078.01771,351.040174 C2043.73951,347.785718 1803.03715,298.146791 1554.08343,224.450948" id="Fill-5" fill="#67C0B5"></path>
                    <path d="M1638.40469,174.352159 C1624.44755,170.220724 1538.3323,141.715629 1516.87468,134.330894 L1516.94197,134.290567 C1409.1262,97.8170691 1304.84812,60.3436319 1233.95706,49.8101173 L1184.33815,79.6790795 C1218.61635,82.9356712 1341.39452,119.284074 1413.61746,145.295658 C1427.31282,150.229514 1445.8162,156.804422 1467.27547,164.188499 L1467.20654,164.231048 C1759.8436,263.376859 2041.82982,320.278413 2112.72089,330.810117 L2162.33815,300.941155 C2128.05913,297.686785 1887.35923,248.047834 1638.40469,174.352159" id="Fill-6" fill="#67C0B5"></path>
                    <path d="M1717.09838,124.840805 C1703.14122,120.711009 1617.02583,92.2057079 1595.56817,84.8217848 L1595.63546,84.780635 C1487.82033,48.3070835 1383.54208,10.8335915 1312.65007,0.300884385 L1263.03272,30.1698903 C1297.30934,33.4256638 1420.08854,69.7724739 1492.31078,95.784919 C1506.00616,100.719605 1524.50957,107.292877 1545.96887,114.679269 L1545.89994,114.721242 C1838.5375,213.867445 2120.52501,270.769083 2191.41538,281.300884 L2241.03272,251.430315 C2206.75611,248.17594 1966.05334,198.536917 1717.09838,124.840805" id="Fill-7" fill="#67C0B5"></path>
                    <path d="M1235.81496,193.712781 C1232.24279,206.263656 1229.33237,220.553254 1227.40896,236.937652 C1220.64207,294.563036 1200.84977,445.802033 1198.03893,470.814805 C1193.80661,508.455642 1188.22108,558.924604 1186.78675,575.587561 C1185.04082,595.888649 1179.72593,632.352384 1161.38723,663.949725 C1172.91086,675.35403 1183.91006,685.686174 1194.25153,694.712781 C1208.32418,674.633444 1221.46765,644.914882 1226.87891,598.823628 C1229.65682,575.164524 1232.2958,552.954043 1234.72757,532.626761 C1238.21943,503.440596 1244.02983,457.932818 1244.02983,457.932818 C1244.02983,457.932818 1265.11512,287.908396 1267.50112,260.173637 C1268.59895,247.40404 1271.11345,228.234952 1277.38723,207.904724 C1263.31619,203.052982 1249.43949,198.301925 1235.81496,193.712781" id="Fill-8" fill="#000000"></path>
                    <path d="M1166.09548,170.764979 C1162.97614,182.337951 1160.42223,195.33386 1158.66832,209.984367 C1151.73416,267.876942 1131.44939,419.817184 1128.56873,444.945849 C1124.23128,482.761297 1118.507,533.464184 1117.03787,550.204484 C1115.80083,564.290685 1112.81482,586.129398 1104.89877,608.749194 C1116.62964,621.389019 1128.10042,633.444144 1139.21811,644.764979 C1147.58766,626.71457 1154.52675,603.597984 1158.12593,573.548207 C1160.97285,549.779486 1163.67737,527.465939 1166.16873,507.042927 C1169.74815,477.722916 1175.70289,432.004133 1175.70289,432.004133 C1175.70289,432.004133 1197.31112,261.191364 1199.75638,233.32661 C1200.8214,221.176256 1203.18848,203.259234 1208.89877,184.04666 C1194.22717,179.338047 1179.9284,174.881489 1166.09548,170.764979" id="Fill-9" fill="#000000"></path>
                    <path d="M1095.07,152.522749 C1092.79858,162.057892 1090.90753,172.489065 1089.51448,183.93629 C1082.48834,241.689836 1061.92959,393.266672 1059.00836,418.333515 C1054.61316,456.058149 1048.81073,506.640751 1047.32175,523.340849 C1046.84461,528.703327 1046.10304,535.201797 1044.93105,542.429758 C1057.41511,556.464657 1069.81826,570.218818 1082.03455,583.522749 C1084.92576,572.540438 1087.29978,560.311054 1088.96477,546.627036 C1091.85013,522.916872 1094.59119,500.656911 1097.11703,480.281467 C1100.74396,451.033345 1106.77912,405.422878 1106.77912,405.422878 C1106.77912,405.422878 1128.68004,235.021791 1131.1575,207.223953 C1132.13847,196.203659 1134.21386,180.424612 1138.93105,163.246472 C1123.54077,159.089968 1108.86286,155.464666 1095.07,152.522749" id="Fill-10" fill="#000000"></path>
                    <path d="M226.492985,980.365352 C252.664952,941.934834 468.106136,624.579316 473.920711,616.16628 C490.647164,591.969717 517.059694,554.411027 517.059694,554.411027 C517.059694,554.411027 586.065953,453.457221 601.120489,430.02007 C604.153906,425.295845 608.003488,419.615122 612.638805,413.458281 C602.667094,402.180013 592.760902,391.114973 582.980104,380.365352 C580.592551,383.56059 578.196163,386.89309 575.793968,390.383341 C542.884763,438.224302 483.783142,523.147917 469.610453,543.972481 C454.975696,565.474673 209.947221,926.595342 173.638805,980.365352 L226.492985,980.365352 Z" id="Fill-11" fill="#000000"></path>
                    <path d="M139.133307,980.631262 C139.327855,980.352547 139.526753,980.063617 139.721383,979.784902 C156.505948,955.605258 453.091698,521.720059 453.091698,521.720059 C453.091698,521.720059 522.34388,420.844099 537.452048,397.421832 C543.478931,388.079783 552.707974,374.987437 564.929937,361.889277 C554.438466,350.650175 544.148931,339.860546 534.131352,329.631262 C526.862564,337.724221 519.473764,347.05022 512.035218,357.816512 C479.007294,405.61985 419.696596,490.480625 405.473415,511.289418 C387.168996,538.070896 114.96577,937.539843 85.9299373,980.631262 L139.133307,980.631262 Z" id="Fill-12" fill="#000000"></path>
                    <path d="M53.2208533,978.934687 C61.4767851,966.976412 69.3721718,955.558371 76.8281991,944.788622 C93.5765463,920.594648 389.52161,486.452232 389.52161,486.452232 C389.52161,486.452232 458.624192,385.516468 473.699723,362.080315 C482.126422,348.981682 496.834094,328.522621 517.238963,310.994114 C505.797961,299.669446 494.813937,289.255973 484.406399,279.934687 C472.726136,290.793475 460.602001,304.652788 448.337799,322.452991 C415.382696,370.283194 356.198647,455.195752 342.006192,476.015407 C320.648213,507.34784 22.5968312,945.991749 13.538079,960.070106 C10.1253549,965.376131 5.67188025,971.896971 0.23896335,978.934687 L53.2208533,978.934687 Z" id="Fill-13" fill="#000000"></path>
                </g>
            </g>
        </g>
    </g>
</svg>